# xmcd
#
# Track frame offsets:
#	182
#	15282
#	27990
#	47652
#	65742
#	87175
#	102835
#	117877
#	134035
#	148875
#
# Disc length: 2261 seconds
#
# Revision: 0
# Processed by: cddbd v1.5.2PL0 Copyright (c) Steve Scherf et al.
# Submitted via: dBpowerAMP V4.0
#
DISCID=8908d30a
DTITLE=Alejandro Jaen - Bolero Mi Amor Eterno
DYEAR=1900
DGENRE=
TTITLE0=nuestro juramento
TTITLE1=rodando tu esquina
TTITLE2=envidia
TTITLE3=cuando ya no me quieras
TTITLE4=como quisiera
TTITLE5=interrogacion
TTITLE6=arrepentida
TTITLE7=amar y vivir
TTITLE8=llanto de luna
TTITLE9=noche de ronda
EXTD=
EXTT0=
EXTT1=
EXTT2=
EXTT3=
EXTT4=
EXTT5=
EXTT6=
EXTT7=
EXTT8=
EXTT9=
PLAYORDER=
